<svg width="22" height="22" viewBox="0 0 22 22" fill="none" xmlns="http://www.w3.org/2000/svg">
<path d="M9.95664 15.9243H16.7979C17.0453 15.9243 17.2772 15.9707 17.4937 16.0635C17.7102 16.1562 17.8988 16.283 18.0596 16.4438C18.2204 16.6047 18.3472 16.7933 18.44 17.0098C18.5328 17.2262 18.5791 17.4582 18.5791 17.7056C18.5791 17.953 18.5328 18.1849 18.44 18.4014C18.3472 18.6178 18.2204 18.8065 18.0596 18.9673C17.8988 19.1281 17.7102 19.2549 17.4937 19.3477C17.2772 19.4404 17.0453 19.4868 16.7979 19.4868C16.5505 19.4868 16.3186 19.4404 16.1021 19.3477C15.8856 19.2549 15.697 19.1281 15.5362 18.9673C15.3754 18.8065 15.2486 18.6178 15.1558 18.4014C15.063 18.1849 15.0166 17.953 15.0166 17.7056C15.0166 17.5138 15.0507 17.3159 15.1187 17.1118H10.1646C10.2326 17.3159 10.2666 17.5138 10.2666 17.7056C10.2666 17.953 10.2203 18.1849 10.1275 18.4014C10.0347 18.6178 9.90792 18.8065 9.74711 18.9673C9.58631 19.1281 9.39767 19.2549 9.1812 19.3477C8.96472 19.4404 8.73279 19.4868 8.48539 19.4868C8.238 19.4868 8.00606 19.4404 7.78959 19.3477C7.57312 19.2549 7.38448 19.1281 7.22368 18.9673C7.06287 18.8065 6.93608 18.6178 6.8433 18.4014C6.75053 18.1849 6.70414 17.953 6.70414 17.7056C6.70414 17.3654 6.79383 17.05 6.97319 16.7593C7.15873 16.4686 7.40613 16.249 7.71537 16.1006L3.86187 4.5133L1.0459 4.51318L1.04598 2.51318L5.31753 2.51337L6.25962 5.23682H20.9541L18.1895 13.5493H9.13508L9.95664 15.9243Z" fill="#C4C4C4"/>
</svg>
