<svg width="22" height="22" viewBox="0 0 22 22" fill="none" xmlns="http://www.w3.org/2000/svg">
<path d="M10.0566 14.8517H16.2421C16.4658 14.8517 16.6755 14.8927 16.8712 14.9747C17.067 15.0567 17.2375 15.1687 17.3829 15.3109C17.5283 15.453 17.6429 15.6197 17.7268 15.811C17.8107 16.0023 17.8526 16.2072 17.8526 16.4259C17.8526 16.6445 17.8107 16.8495 17.7268 17.0408C17.6429 17.2321 17.5283 17.3988 17.3829 17.5409C17.2375 17.683 17.067 17.795 16.8712 17.877C16.6755 17.959 16.4658 18 16.2421 18C16.0185 18 15.8088 17.959 15.613 17.877C15.4173 17.795 15.2467 17.683 15.1014 17.5409C14.956 17.3988 14.8413 17.2321 14.7574 17.0408C14.6736 16.8495 14.6316 16.6445 14.6316 16.4259C14.6316 16.2564 14.6624 16.0815 14.7239 15.9012H10.2446C10.3062 16.0815 10.3369 16.2564 10.3369 16.4259C10.3369 16.6445 10.295 16.8495 10.2111 17.0408C10.1272 17.2321 10.0126 17.3988 9.86719 17.5409C9.72179 17.683 9.55123 17.795 9.35551 17.877C9.15979 17.959 8.95009 18 8.7264 18C8.50272 18 8.29302 17.959 8.0973 17.877C7.90158 17.795 7.73102 17.683 7.58562 17.5409C7.44023 17.3988 7.32559 17.2321 7.24171 17.0408C7.15783 16.8495 7.11589 16.6445 7.11589 16.4259C7.11589 16.1253 7.19698 15.8465 7.35915 15.5896C7.52691 15.3327 7.75059 15.1387 8.03019 15.0075L4.54605 4.76755L2 4.76745L2.00008 3L5.86219 3.00016L6.71398 5.40694H20L17.5003 12.7529H9.31382L10.0566 14.8517Z" fill="white"/>
</svg>
