<svg width="28" height="28" viewBox="0 0 28 28" fill="none" xmlns="http://www.w3.org/2000/svg">
<path fill-rule="evenodd" clip-rule="evenodd" d="M18.6836 7.14929C20.591 7.65923 21.3206 8.94423 22.2354 10.7129H18.6836V7.14929ZM7.53656 10.8614C7.91002 10.8614 8.18109 11.0691 8.18109 11.5545C8.18109 11.9638 7.89357 12.2959 7.53841 12.297H3.64453C3.28853 12.297 3 12.6296 3 13.0396C3 13.4498 3.28853 13.7822 3.64453 13.7822H9.44531C9.80467 13.7822 10.0924 14.1144 10.0924 14.5248C10.0924 14.9349 9.80383 15.2673 9.44783 15.2673H3.64453C3.28853 15.2673 3 15.5997 3 16.0099C3 16.4201 3.28853 16.7525 3.64453 16.7525H5.0625V18.9802C5.0625 19.3904 5.35103 19.7228 5.70703 19.7228H7.00264C7.2336 21.0335 8.23883 22 9.42383 22C10.6088 22 11.6141 21.0335 11.845 19.7228H18.3894C18.6203 21.0335 19.6255 22 20.8105 22C21.9955 22 23.0008 21.0335 23.2317 19.7228H24.3555C24.7115 19.7228 25 19.3904 25 18.9802V14.5248C25 12.346 23.0053 12.2013 23.0035 12.198H18.0391C17.6831 12.198 17.3945 11.8656 17.3945 11.4554V7H5.70703C5.35103 7 5.0625 7.33242 5.0625 7.74257V9.37624H4.28906C3.93306 9.37624 3.64453 9.70866 3.64453 10.1188C3.64453 10.529 3.93306 10.8614 4.28906 10.8614H7.53656ZM21.6461 18.1908C22.1075 18.7224 22.1075 19.5847 21.6461 20.1163C20.9039 20.9714 19.6289 20.363 19.6289 19.1535C19.6289 17.9441 20.9039 17.3357 21.6461 18.1908ZM10.2594 18.1908C10.7208 18.7224 10.7208 19.5847 10.2594 20.1163C9.51715 20.9714 8.24219 20.363 8.24219 19.1535C8.24219 17.9441 9.51715 17.3357 10.2594 18.1908Z" fill="#FF8A00"/>
</svg>
