<svg width="28" height="28" viewBox="0 0 28 28" fill="none" xmlns="http://www.w3.org/2000/svg">
<path d="M14 6C9.58203 6 6 9.58332 6 14C6 18.4193 9.58203 22 14 22C18.418 22 22 18.4193 22 14C22 9.58332 18.418 6 14 6ZM14 9.54839C14.7483 9.54839 15.3548 10.155 15.3548 10.9032C15.3548 11.6515 14.7483 12.2581 14 12.2581C13.2517 12.2581 12.6452 11.6515 12.6452 10.9032C12.6452 10.155 13.2517 9.54839 14 9.54839ZM15.8065 17.7419C15.8065 17.9557 15.6331 18.129 15.4194 18.129H12.5806C12.3669 18.129 12.1935 17.9557 12.1935 17.7419V16.9677C12.1935 16.754 12.3669 16.5806 12.5806 16.5806H12.9677V14.5161H12.5806C12.3669 14.5161 12.1935 14.3428 12.1935 14.129V13.3548C12.1935 13.1411 12.3669 12.9677 12.5806 12.9677H14.6452C14.8589 12.9677 15.0323 13.1411 15.0323 13.3548V16.5806H15.4194C15.6331 16.5806 15.8065 16.754 15.8065 16.9677V17.7419Z" fill="#FF8A00"/>
</svg>
