<svg width="28" height="28" viewBox="0 0 28 28" fill="none" xmlns="http://www.w3.org/2000/svg">
<path d="M18.084 22.5L16.334 7.33333H18.9357L17.6173 2.03667L19.6473 1.5L21.1057 7.33333H25.6673L23.9173 22.5H18.084ZM5.83398 10.8333H11.6673C12.5956 10.8333 13.4858 11.2021 14.1422 11.8585C14.7986 12.5148 15.1673 13.4051 15.1673 14.3333H2.33398C2.33398 13.4051 2.70273 12.5148 3.35911 11.8585C4.01549 11.2021 4.90573 10.8333 5.83398 10.8333ZM15.1673 19C15.1673 19.9283 14.7986 20.8185 14.1422 21.4749C13.4858 22.1313 12.5956 22.5 11.6673 22.5H5.83398C4.90573 22.5 4.01549 22.1313 3.35911 21.4749C2.70273 20.8185 2.33398 19.9283 2.33398 19H15.1673ZM3.50065 15.5H9.33398L11.084 17.25L12.834 15.5H14.0007C14.3101 15.5 14.6068 15.6229 14.8256 15.8417C15.0444 16.0605 15.1673 16.3572 15.1673 16.6667C15.1673 16.9761 15.0444 17.2728 14.8256 17.4916C14.6068 17.7104 14.3101 17.8333 14.0007 17.8333H3.50065C3.19123 17.8333 2.89449 17.7104 2.67569 17.4916C2.4569 17.2728 2.33398 16.9761 2.33398 16.6667C2.33398 16.3572 2.4569 16.0605 2.67569 15.8417C2.89449 15.6229 3.19123 15.5 3.50065 15.5Z" fill="#FF8A00"/>
</svg>
