<svg width="22" height="22" viewBox="0 0 22 22" fill="none" xmlns="http://www.w3.org/2000/svg">
<path d="M11 10C12.099 10 13.0507 9.60582 13.8283 8.82809C14.6058 8.05049 15 7.09905 15 5.99987C15 4.90107 14.6058 3.94951 13.8281 3.17166C13.0504 2.39418 12.0989 2 11 2C9.90086 2 8.94945 2.39418 8.17187 3.17178C7.3943 3.94938 7 4.90095 7 5.99987C7 7.09905 7.3943 8.05062 8.172 8.82822C8.9497 9.60569 9.90124 10 11 10Z" fill="#FF8A00"/>
<path d="M17.9661 15.4244C17.9434 15.1229 17.8976 14.794 17.8301 14.4466C17.762 14.0967 17.6743 13.7659 17.5693 13.4635C17.4609 13.151 17.3134 12.8424 17.1311 12.5466C16.9419 12.2397 16.7196 11.9724 16.4702 11.7524C16.2094 11.5223 15.8902 11.3373 15.5209 11.2024C15.153 11.0681 14.7452 11.0001 14.3091 11.0001C14.1378 11.0001 13.9721 11.0649 13.6522 11.257C13.4553 11.3754 13.2249 11.5124 12.9679 11.6639C12.748 11.793 12.4503 11.914 12.0824 12.0236C11.7236 12.1307 11.3592 12.185 10.9996 12.185C10.64 12.185 10.2758 12.1307 9.91653 12.0236C9.5491 11.9142 9.25131 11.7932 9.03175 11.664C8.77711 11.5139 8.54666 11.377 8.34682 11.2569C8.02727 11.0648 7.86148 11 7.69018 11C7.25387 11 6.84624 11.0681 6.47843 11.2025C6.10946 11.3372 5.79004 11.5222 5.529 11.7525C5.27973 11.9726 5.05736 12.2398 4.86839 12.5466C4.68621 12.8424 4.53873 13.1509 4.43016 13.4636C4.32531 13.766 4.23761 14.0967 4.1695 14.4466C4.10204 14.7935 4.0562 15.1226 4.03354 15.4248C4.01127 15.7209 4 16.0282 4 16.3386C4 17.1464 4.27845 17.8004 4.82755 18.2826C5.36986 18.7586 6.08744 19 6.96006 19H15.0399C15.9126 19 16.6299 18.7587 17.1723 18.2826C17.7215 17.8007 18 17.1466 18 16.3385C17.9999 16.0267 17.9885 15.7191 17.9661 15.4244Z" fill="#FF8A00"/>
</svg>
